<svg xmlns="http://www.w3.org/2000/svg" version="1.1" xmlns:xlink="http://www.w3.org/1999/xlink" xmlns:svgjs="http://svgjs.com/svgjs" width="1440" height="1117" preserveAspectRatio="none" viewBox="0 0 1440 1117">
    <g mask="url(&quot;#SvgjsMask1073&quot;)" fill="none">
        <rect width="1440" height="1117" x="0" y="0" fill="rgba(240, 235, 227, 1)"></rect>
        <path d="M720 1346.55C942.97 1353.18 1176.52 1330.1 1341.96 1180.46 1514.17 1024.71 1609.44 789.97 1591.32 558.5 1574.25 340.56 1411.46 176.03 1251.69 26.81 1099.27-115.58 928.45-248.15 720-255.46 505.22-263.01 295.82-169.41 149.58-11.92 8.14 140.4-33.03 350.69-35.82 558.5-38.68 769.88-12.29 991.86 134.04 1144.46 282.73 1299.46 505.32 1340.16 720 1346.55" fill="rgba(228, 220, 207, 1)"></path>
        <path d="M720 1068.42C864.28 1072.71 1015.39 1057.77 1122.45 960.95 1233.88 860.16 1295.52 708.28 1283.79 558.5 1272.75 417.48 1167.41 311.02 1064.04 214.46 965.41 122.33 854.88 36.55 720 31.82 581.03 26.94 445.53 87.5 350.91 189.41 259.39 287.97 232.74 424.04 230.94 558.5 229.09 695.27 246.16 838.91 340.85 937.65 437.06 1037.95 581.09 1064.28 720 1068.42" fill="rgba(215, 192, 174, 1)"></path>
        <path d="M720 790.28C785.58 792.23 854.27 785.44 902.93 741.43 953.58 695.62 981.6 626.58 976.27 558.5 971.25 494.4 923.37 446.01 876.38 402.12 831.55 360.24 781.31 321.25 720 319.1 656.83 316.88 595.24 344.41 552.23 390.73 510.63 435.53 498.52 497.38 497.7 558.5 496.86 620.67 504.62 685.96 547.66 730.84 591.39 776.43 656.86 788.4 720 790.28" fill="rgba(150, 126, 118, 1)"></path>
    </g>
    <defs>
        <mask id="SvgjsMask1073">
            <rect width="1440" height="1117" fill="#ffffff"></rect>
        </mask>
    </defs>
</svg>